<?xml version="1.0" encoding="utf-8"?><svg version="1.1" id="Layer_1" xmlns="http://www.w3.org/2000/svg" xmlns:xlink="http://www.w3.org/1999/xlink" x="0px" y="0px" width="122.229px" height="122.879px" viewBox="0 0 122.229 122.879" enable-background="new 0 0 122.229 122.879" xml:space="preserve"><g><path d="M0.661,59.444L60.454,0.6c0.442-0.436,1.03-0.633,1.605-0.595c0.85,0.033,1.695,0.084,2.535,0.151l0.078,0.003 c0.055,0.003,0.109,0.009,0.164,0.017c6.82,0.569,13.33,2.222,19.354,4.777c7.113,3.018,13.553,7.297,19.033,12.539 c11.736,11.229,18.121,26.082,18.92,41.208c0.797,15.081-3.955,30.442-14.486,42.77c-2.504,2.93-5.211,5.56-8.08,7.888 c-11.443,9.284-25.43,13.754-39.352,13.513c-13.921-0.241-27.78-5.193-38.968-14.752c-2.849-2.435-5.526-5.17-7.988-8.204 C8.838,94.455,5.333,88.23,3.042,81.47c-2.183-6.441-3.267-13.377-3.004-20.61C0.058,60.303,0.293,59.806,0.661,59.444 L0.661,59.444z M66.463,4.536c-0.262,3.008-0.646,5.908-1.15,8.7c25.385,1.998,45.361,23.228,45.361,49.125 c0,27.219-22.064,49.283-49.284,49.283c-26.059,0-47.392-20.225-49.163-45.833C9.646,66.185,7,66.433,4.297,66.559 c0.315,4.713,1.246,9.258,2.707,13.568c2.131,6.291,5.39,12.079,9.506,17.152c2.298,2.831,4.8,5.387,7.464,7.663 c10.43,8.912,23.346,13.528,36.315,13.753c12.971,0.226,25.998-3.937,36.65-12.58c2.674-2.168,5.199-4.623,7.541-7.362 c9.807-11.479,14.23-25.787,13.488-39.84c-0.746-14.104-6.695-27.948-17.627-38.409C95.23,15.614,89.217,11.62,82.568,8.8 C77.523,6.661,72.115,5.199,66.463,4.536L66.463,4.536z M4.181,62.385c16.298-0.775,30.345-6.292,40.563-16.489 c9.593-9.573,15.859-23.322,17.505-41.201L4.19,61.833C4.186,62.017,4.183,62.201,4.181,62.385L4.181,62.385z"/></g></svg>